<svg xmlns="http://www.w3.org/2000/svg" xmlns:xlink="http://www.w3.org/1999/xlink" width="40" zoomAndPan="magnify" viewBox="0 0 30 30.000001" height="40" preserveAspectRatio="xMidYMid meet" version="1.0"><defs><clipPath id="4fd94667a8"><path d="M 6.265625 7.34375 L 23.683594 7.34375 L 23.683594 21.859375 L 6.265625 21.859375 Z M 6.265625 7.34375 " clip-rule="nonzero"/></clipPath></defs><g clip-path="url(#4fd94667a8)"><path fill="#0a76d8" d="M 21.238281 9.214844 L 18.675781 9.214844 L 17.917969 8.273438 C 17.441406 7.679688 16.730469 7.34375 15.972656 7.34375 L 14.023438 7.34375 C 13.261719 7.34375 12.554688 7.679688 12.078125 8.273438 L 11.320312 9.214844 L 8.757812 9.214844 C 7.382812 9.214844 6.265625 10.332031 6.265625 11.707031 L 6.265625 19.195312 C 6.265625 20.570312 7.382812 21.6875 8.757812 21.6875 L 21.238281 21.6875 C 22.613281 21.6875 23.730469 20.570312 23.730469 19.195312 L 23.730469 11.707031 C 23.730469 10.332031 22.609375 9.214844 21.238281 9.214844 Z M 22.480469 19.195312 C 22.480469 19.882812 21.921875 20.441406 21.238281 20.441406 L 8.757812 20.441406 C 8.070312 20.441406 7.511719 19.882812 7.511719 19.195312 L 7.511719 11.707031 C 7.511719 11.019531 8.070312 10.460938 8.757812 10.460938 L 11.617188 10.460938 C 11.808594 10.460938 11.984375 10.375 12.105469 10.226562 L 13.050781 9.054688 C 13.289062 8.757812 13.640625 8.589844 14.023438 8.589844 L 15.972656 8.589844 C 16.355469 8.589844 16.707031 8.757812 16.945312 9.054688 L 17.890625 10.230469 C 18.007812 10.375 18.1875 10.460938 18.375 10.460938 L 21.238281 10.460938 C 21.921875 10.460938 22.480469 11.019531 22.480469 11.707031 Z M 14.996094 11.085938 C 12.589844 11.085938 10.632812 13.042969 10.632812 15.453125 C 10.632812 17.859375 12.589844 19.816406 14.996094 19.816406 C 17.40625 19.816406 19.363281 17.859375 19.363281 15.453125 C 19.363281 13.042969 17.40625 11.085938 14.996094 11.085938 Z M 14.996094 18.570312 C 13.277344 18.570312 11.878906 17.171875 11.878906 15.449219 C 11.878906 13.730469 13.277344 12.332031 14.996094 12.332031 C 16.71875 12.332031 18.117188 13.730469 18.117188 15.453125 C 18.117188 17.171875 16.71875 18.570312 14.996094 18.570312 Z M 14.996094 18.570312 " fill-opacity="1" fill-rule="nonzero"/></g></svg>