<svg xmlns="http://www.w3.org/2000/svg" xmlns:xlink="http://www.w3.org/1999/xlink" width="40" zoomAndPan="magnify" viewBox="0 0 30 30.000001" height="40" preserveAspectRatio="xMidYMid meet" version="1.0"><defs><clipPath id="9d04622618"><path d="M 6.417969 6.609375 L 23.835938 6.609375 L 23.835938 22.578125 L 6.417969 22.578125 Z M 6.417969 6.609375 " clip-rule="nonzero"/></clipPath></defs><g clip-path="url(#9d04622618)"><path fill="#0a76d8" d="M 17.390625 14.703125 C 17.558594 14.703125 17.699219 14.761719 17.816406 14.882812 C 17.929688 15 17.988281 15.140625 17.988281 15.304688 C 17.988281 15.472656 17.929688 15.613281 17.816406 15.730469 C 17.699219 15.847656 17.558594 15.90625 17.390625 15.910156 L 15.597656 15.910156 L 15.597656 17.71875 C 15.597656 17.886719 15.539062 18.027344 15.421875 18.144531 C 15.304688 18.265625 15.164062 18.324219 14.996094 18.324219 C 14.832031 18.324219 14.691406 18.265625 14.574219 18.144531 C 14.457031 18.027344 14.398438 17.886719 14.398438 17.71875 L 14.398438 15.910156 L 12.605469 15.910156 C 12.4375 15.90625 12.296875 15.847656 12.179688 15.730469 C 12.0625 15.613281 12.003906 15.472656 12.003906 15.304688 C 12.003906 15.140625 12.0625 15 12.179688 14.882812 C 12.296875 14.761719 12.4375 14.703125 12.605469 14.703125 L 14.398438 14.703125 L 14.398438 12.890625 C 14.398438 12.726562 14.457031 12.582031 14.574219 12.464844 C 14.691406 12.347656 14.832031 12.289062 14.996094 12.289062 C 15.164062 12.289062 15.304688 12.347656 15.421875 12.464844 C 15.539062 12.582031 15.597656 12.726562 15.597656 12.890625 L 15.597656 14.703125 Z M 20.582031 12.289062 C 20.746094 12.289062 20.886719 12.347656 21.003906 12.46875 C 21.121094 12.585938 21.179688 12.726562 21.179688 12.890625 C 21.179688 13.058594 21.121094 13.199219 21.003906 13.316406 C 20.886719 13.433594 20.746094 13.492188 20.582031 13.496094 L 19.785156 13.496094 C 19.621094 13.492188 19.476562 13.433594 19.363281 13.316406 C 19.246094 13.199219 19.1875 13.058594 19.1875 12.890625 C 19.1875 12.726562 19.246094 12.585938 19.363281 12.46875 C 19.476562 12.347656 19.621094 12.289062 19.785156 12.289062 Z M 13.222656 21.140625 L 16.765625 21.140625 C 19.140625 21.140625 20.324219 21.140625 21.070312 20.648438 C 21.230469 20.542969 21.378906 20.421875 21.515625 20.289062 C 21.652344 20.152344 21.777344 20.003906 21.886719 19.84375 C 22.144531 19.40625 22.285156 18.933594 22.304688 18.425781 C 22.375 17.738281 22.375 16.820312 22.375 15.601562 C 22.375 13.257812 22.375 12.089844 21.886719 11.355469 C 21.777344 11.199219 21.652344 11.050781 21.515625 10.914062 C 21.378906 10.777344 21.230469 10.660156 21.070312 10.554688 C 20.824219 10.394531 20.558594 10.285156 20.269531 10.226562 C 19.851562 10.144531 19.429688 10.097656 19 10.085938 C 18.597656 10.082031 18.238281 9.953125 17.925781 9.695312 C 17.613281 9.429688 17.417969 9.097656 17.339844 8.699219 C 17.289062 8.453125 17.164062 8.253906 16.96875 8.097656 C 16.773438 7.941406 16.554688 7.863281 16.300781 7.863281 L 13.691406 7.863281 C 13.441406 7.863281 13.21875 7.941406 13.023438 8.097656 C 12.828125 8.253906 12.707031 8.453125 12.65625 8.699219 C 12.574219 9.101562 12.378906 9.433594 12.0625 9.695312 C 11.753906 9.953125 11.398438 10.085938 10.992188 10.085938 C 10.566406 10.097656 10.144531 10.144531 9.726562 10.226562 C 9.4375 10.285156 9.167969 10.390625 8.925781 10.554688 C 8.597656 10.769531 8.328125 11.035156 8.109375 11.355469 C 7.851562 11.796875 7.710938 12.269531 7.6875 12.777344 C 7.617188 13.457031 7.617188 14.375 7.617188 15.601562 C 7.617188 17.945312 7.617188 19.113281 8.109375 19.84375 C 8.214844 20.007812 8.339844 20.152344 8.476562 20.289062 C 8.617188 20.421875 8.765625 20.542969 8.925781 20.648438 C 9.371094 20.910156 9.851562 21.050781 10.367188 21.070312 C 11.058594 21.140625 11.984375 21.140625 13.222656 21.140625 Z M 16.765625 22.347656 L 13.222656 22.347656 C 11.972656 22.347656 11.03125 22.347656 10.253906 22.265625 C 9.539062 22.230469 8.878906 22.027344 8.269531 21.65625 C 7.8125 21.351562 7.433594 20.976562 7.121094 20.527344 C 6.421875 19.480469 6.421875 18.1875 6.421875 15.601562 C 6.421875 14.355469 6.421875 13.425781 6.5 12.652344 C 6.539062 11.941406 6.746094 11.28125 7.121094 10.675781 C 7.273438 10.453125 7.445312 10.246094 7.636719 10.054688 C 7.832031 9.863281 8.042969 9.695312 8.269531 9.546875 C 8.636719 9.308594 9.035156 9.144531 9.464844 9.050781 C 9.960938 8.953125 10.460938 8.898438 10.96875 8.886719 L 10.992188 8.878906 C 11.109375 8.875 11.214844 8.839844 11.304688 8.761719 C 11.398438 8.683594 11.460938 8.582031 11.488281 8.460938 C 11.59375 7.933594 11.855469 7.5 12.273438 7.164062 C 12.6875 6.828125 13.160156 6.660156 13.691406 6.65625 L 16.300781 6.65625 C 16.835938 6.660156 17.308594 6.828125 17.722656 7.164062 C 18.136719 7.503906 18.398438 7.9375 18.503906 8.460938 C 18.53125 8.582031 18.59375 8.683594 18.691406 8.761719 C 18.78125 8.839844 18.882812 8.875 19 8.878906 L 19.027344 8.886719 C 19.53125 8.898438 20.035156 8.953125 20.53125 9.050781 C 20.957031 9.144531 21.355469 9.308594 21.726562 9.546875 C 21.953125 9.695312 22.164062 9.863281 22.355469 10.054688 C 22.546875 10.246094 22.71875 10.453125 22.871094 10.675781 C 23.574219 11.71875 23.574219 13.015625 23.574219 15.601562 C 23.574219 16.839844 23.574219 17.769531 23.488281 18.546875 C 23.453125 19.261719 23.246094 19.917969 22.871094 20.527344 C 22.5625 20.976562 22.179688 21.351562 21.726562 21.65625 C 20.683594 22.347656 19.378906 22.347656 16.765625 22.347656 Z M 16.765625 22.347656 " fill-opacity="1" fill-rule="nonzero"/></g></svg>