<svg xmlns="http://www.w3.org/2000/svg" xmlns:xlink="http://www.w3.org/1999/xlink" width="40" zoomAndPan="magnify" viewBox="0 0 30 30.000001" height="40" preserveAspectRatio="xMidYMid meet" version="1.0"><defs><clipPath id="d5e3550e44"><path d="M 6.859375 5.117188 L 22.824219 5.117188 L 22.824219 23.988281 L 6.859375 23.988281 Z M 6.859375 5.117188 " clip-rule="nonzero"/></clipPath></defs><g clip-path="url(#d5e3550e44)"><path fill="#0a76d8" d="M 7.96875 23.53125 C 8.269531 23.703125 8.597656 23.789062 8.949219 23.785156 C 9.296875 23.78125 9.621094 23.6875 9.921875 23.507812 L 22.0625 16.238281 C 22.210938 16.148438 22.34375 16.039062 22.464844 15.914062 C 22.585938 15.789062 22.6875 15.652344 22.773438 15.5 C 22.855469 15.351562 22.921875 15.191406 22.964844 15.023438 C 23.007812 14.855469 23.03125 14.6875 23.03125 14.511719 C 23.03125 14.339844 23.007812 14.167969 22.964844 14 C 22.921875 13.835938 22.855469 13.675781 22.773438 13.523438 C 22.6875 13.371094 22.585938 13.234375 22.464844 13.109375 C 22.34375 12.984375 22.210938 12.878906 22.0625 12.789062 L 9.921875 5.519531 C 9.621094 5.335938 9.296875 5.246094 8.949219 5.238281 C 8.597656 5.234375 8.269531 5.320312 7.96875 5.496094 C 7.652344 5.671875 7.40625 5.917969 7.222656 6.230469 C 7.042969 6.542969 6.953125 6.882812 6.957031 7.242188 L 6.957031 21.78125 C 6.953125 22.144531 7.042969 22.480469 7.222656 22.792969 C 7.40625 23.105469 7.652344 23.351562 7.96875 23.53125 Z M 8.195312 7.242188 C 8.191406 6.941406 8.316406 6.71875 8.578125 6.570312 C 8.6875 6.507812 8.804688 6.476562 8.929688 6.476562 C 9.058594 6.476562 9.175781 6.511719 9.285156 6.578125 L 21.425781 13.847656 C 21.542969 13.921875 21.632812 14.015625 21.695312 14.132812 C 21.761719 14.25 21.792969 14.378906 21.792969 14.511719 C 21.792969 14.648438 21.761719 14.773438 21.695312 14.890625 C 21.632812 15.007812 21.542969 15.105469 21.425781 15.175781 L 9.285156 22.445312 C 9.050781 22.589844 8.816406 22.59375 8.578125 22.453125 C 8.316406 22.304688 8.191406 22.082031 8.195312 21.78125 Z M 8.195312 7.242188 " fill-opacity="1" fill-rule="nonzero"/></g></svg>