<svg xmlns="http://www.w3.org/2000/svg" xmlns:xlink="http://www.w3.org/1999/xlink" width="40" zoomAndPan="magnify" viewBox="0 0 30 30.000001" height="40" preserveAspectRatio="xMidYMid meet" version="1.0"><defs><clipPath id="d4c4667ecc"><path d="M 7.183594 5.492188 L 23 5.492188 L 23 23.636719 L 7.183594 23.636719 Z M 7.183594 5.492188 " clip-rule="nonzero"/></clipPath></defs><g clip-path="url(#d4c4667ecc)"><path fill="#0a76d8" d="M 7.183594 21.726562 C 7.183594 21.964844 7.230469 22.195312 7.320312 22.417969 C 7.414062 22.636719 7.542969 22.832031 7.710938 23.003906 C 7.882812 23.171875 8.078125 23.300781 8.296875 23.394531 C 8.519531 23.484375 8.746094 23.53125 8.988281 23.53125 L 17.402344 23.53125 C 17.640625 23.53125 17.871094 23.484375 18.09375 23.394531 C 18.3125 23.300781 18.507812 23.171875 18.675781 23.003906 C 18.847656 22.832031 18.976562 22.636719 19.066406 22.417969 C 19.160156 22.195312 19.207031 21.964844 19.207031 21.726562 L 19.207031 21.125 L 21.007812 21.125 C 21.246094 21.125 21.476562 21.082031 21.699219 20.988281 C 21.917969 20.898438 22.113281 20.765625 22.285156 20.597656 C 22.453125 20.429688 22.582031 20.234375 22.675781 20.011719 C 22.765625 19.792969 22.8125 19.5625 22.8125 19.324219 L 22.8125 7.300781 C 22.8125 7.0625 22.765625 6.832031 22.675781 6.613281 C 22.582031 6.390625 22.453125 6.195312 22.285156 6.027344 C 22.113281 5.859375 21.917969 5.726562 21.699219 5.636719 C 21.476562 5.542969 21.246094 5.5 21.007812 5.5 L 12.59375 5.5 C 12.355469 5.5 12.125 5.542969 11.902344 5.636719 C 11.683594 5.726562 11.488281 5.859375 11.320312 6.027344 C 11.148438 6.195312 11.019531 6.390625 10.925781 6.613281 C 10.835938 6.832031 10.789062 7.0625 10.789062 7.300781 L 10.789062 7.902344 L 8.988281 7.902344 C 8.746094 7.902344 8.519531 7.949219 8.296875 8.039062 C 8.078125 8.132812 7.882812 8.261719 7.710938 8.429688 C 7.542969 8.601562 7.414062 8.796875 7.320312 9.015625 C 7.230469 9.238281 7.183594 9.46875 7.183594 9.707031 Z M 11.992188 7.300781 C 11.992188 7.136719 12.050781 6.996094 12.167969 6.878906 C 12.285156 6.761719 12.425781 6.699219 12.59375 6.699219 L 21.007812 6.699219 C 21.175781 6.699219 21.316406 6.761719 21.433594 6.878906 C 21.550781 6.996094 21.609375 7.136719 21.609375 7.300781 L 21.609375 19.324219 C 21.609375 19.488281 21.550781 19.632812 21.433594 19.75 C 21.316406 19.867188 21.175781 19.925781 21.007812 19.925781 L 19.207031 19.925781 L 19.207031 9.707031 C 19.207031 9.46875 19.160156 9.238281 19.066406 9.015625 C 18.976562 8.796875 18.847656 8.601562 18.675781 8.429688 C 18.507812 8.261719 18.3125 8.132812 18.09375 8.039062 C 17.871094 7.949219 17.640625 7.902344 17.402344 7.902344 L 11.992188 7.902344 Z M 8.386719 9.707031 C 8.386719 9.539062 8.445312 9.398438 8.5625 9.28125 C 8.679688 9.164062 8.820312 9.105469 8.988281 9.105469 L 17.402344 9.105469 C 17.566406 9.105469 17.710938 9.164062 17.828125 9.28125 C 17.945312 9.398438 18.003906 9.539062 18.003906 9.707031 L 18.003906 21.726562 C 18.003906 21.894531 17.945312 22.035156 17.828125 22.152344 C 17.710938 22.269531 17.566406 22.328125 17.402344 22.328125 L 8.988281 22.328125 C 8.820312 22.328125 8.679688 22.269531 8.5625 22.152344 C 8.445312 22.035156 8.386719 21.894531 8.386719 21.726562 Z M 8.386719 9.707031 " fill-opacity="1" fill-rule="nonzero"/></g></svg>