<svg width="20" height="20" xmlns="http://www.w3.org/2000/svg">

 <g>
  <title>background</title>
  <rect fill="none" id="canvas_background" height="402" width="582" y="-1" x="-1"/>
 </g>
 <g>
  <title>Layer 1</title>
  <g stroke="null" id="svg_4">
   <path stroke="null" id="svg_1" fill="#0a76d8" d="m8.107775,3.254134c-0.451134,0 -0.863707,0.253779 -1.066285,0.655881l-0.468987,0.930906l-1.344126,0c-1.098467,0 -1.988953,0.888296 -1.988953,1.984078l0,6.349527c0,1.095767 0.890486,1.984078 1.988953,1.984078l4.053493,0c-0.128836,-0.251422 -0.233957,-0.516971 -0.312401,-0.793631l-3.741092,0c-0.659075,0 -1.193372,-0.533003 -1.193372,-1.190447l0,-6.349527c0,-0.657468 0.534296,-1.190447 1.193372,-1.190447l1.589412,0c0.150373,0 0.287897,-0.084593 0.355426,-0.21863l0.579127,-1.149527c0.067529,-0.134036 0.205053,-0.21863 0.355434,-0.21863l2.99471,0c0.150683,0 0.288478,0.084934 0.355863,0.219384l0.575285,1.148011c0.067306,0.134457 0.205101,0.219391 0.355784,0.219391l1.590366,0c0.659059,0 1.193372,0.532979 1.193372,1.190447l0,2.462416c0.284659,0.14552 0.551258,0.321246 0.795581,0.522908l0,-2.985324c0,-1.095775 -0.890494,-1.984078 -1.988953,-1.984078l-1.344532,0l-0.465335,-0.928628c-0.202078,-0.403355 -0.615382,-0.658158 -1.067431,-0.658158l-2.99471,0z"/>
   <path stroke="null" id="svg_2" fill="#0a76d8" d="m9.600349,6.428683c1.49259,0 2.745232,1.025102 3.088923,2.40806c-0.26819,0.029888 -0.529061,0.08395 -0.780306,0.159956c-0.268906,-1.021165 -1.200611,-1.774385 -2.308617,-1.774385c-1.318174,0 -2.386759,1.065966 -2.386759,2.38087c0,1.10537 0.755078,2.034791 1.77876,2.302959c-0.076193,0.250708 -0.130388,0.51094 -0.160341,0.778473c-1.386364,-0.342849 -2.414,-1.592421 -2.414,-3.081432c0,-1.753219 1.424774,-3.174501 3.18234,-3.174501z"/>
   <path stroke="null" id="svg_3" fill="#0a76d8" d="m16.760578,13.174525c0,1.972412 -1.602857,3.571341 -3.580115,3.571341c-1.977258,0 -3.580115,-1.598929 -3.580115,-3.571341c0,-1.972412 1.602857,-3.571341 3.580115,-3.571341c1.977258,0 3.580115,1.598929 3.580115,3.571341zm-3.182324,-1.587263c0,-0.219122 -0.178131,-0.396816 -0.397791,-0.396816c-0.219739,0 -0.397791,0.177694 -0.397791,0.396816l0,1.190447l-1.193372,0c-0.219739,0 -0.397791,0.177694 -0.397791,0.396816c0,0.219122 0.178051,0.396816 0.397791,0.396816l1.193372,0l0,1.190447c0,0.219122 0.178051,0.396816 0.397791,0.396816c0.21966,0 0.397791,-0.177694 0.397791,-0.396816l0,-1.190447l1.193372,0c0.21966,0 0.397791,-0.177694 0.397791,-0.396816c0,-0.219122 -0.178131,-0.396816 -0.397791,-0.396816l-1.193372,0l0,-1.190447z"/>
  </g>
 </g>
</svg>