<svg width="64" height="64" xmlns="http://www.w3.org/2000/svg">

 <g>
  <title>background</title>
  <rect fill="none" id="canvas_background" height="402" width="582" y="-1" x="-1"/>
 </g>
 <g>
  <title>Layer 1</title>
  <path stroke="null" fill="#0a76d8" id="svg_1" d="m54.911471,32.095844l-7.473526,0c-0.022027,0 -0.043268,0.005474 -0.065295,0.006256c-0.041694,0.002346 -0.082602,0.005474 -0.124297,0.012512c-0.036974,0.005474 -0.073162,0.014076 -0.109349,0.02346c-0.037761,0.009384 -0.074735,0.020332 -0.11171,0.034407c-0.035401,0.013294 -0.069228,0.027369 -0.102269,0.043791c-0.035401,0.016422 -0.070015,0.035189 -0.103056,0.055521c-0.032254,0.01955 -0.062148,0.040663 -0.092042,0.063341c-0.030681,0.022678 -0.060575,0.046919 -0.088896,0.073507c-0.029894,0.027369 -0.056641,0.056303 -0.083389,0.0868c-0.015734,0.017204 -0.033041,0.030497 -0.047988,0.049265l-3.075946,3.891936l-3.75407,-9.086658c-0.0118,-0.027369 -0.028321,-0.050829 -0.041694,-0.076634c-0.01888,-0.038317 -0.036974,-0.076634 -0.059788,-0.112606c-0.022027,-0.033625 -0.047988,-0.063341 -0.072375,-0.093838c-0.022814,-0.028933 -0.044841,-0.057867 -0.070015,-0.083672c-0.030681,-0.032061 -0.064508,-0.058649 -0.098336,-0.086018c-0.025174,-0.020332 -0.048775,-0.043009 -0.075522,-0.061777c-0.043268,-0.029715 -0.088109,-0.052393 -0.133737,-0.076634c-0.019667,-0.010166 -0.036974,-0.02346 -0.057428,-0.032843c-0.003933,-0.001564 -0.007867,-0.002346 -0.0118,-0.00391c-0.046415,-0.01955 -0.094402,-0.033625 -0.143177,-0.047701c-0.027534,-0.00782 -0.054281,-0.018768 -0.081815,-0.025023c-0.033041,-0.007038 -0.066868,-0.00782 -0.100696,-0.012512c-0.043268,-0.005474 -0.085749,-0.013294 -0.129017,-0.014076c-0.020454,0 -0.042481,0.00391 -0.062935,0.004692c-0.055855,0.001564 -0.11171,0.004692 -0.165991,0.014858c-0.020454,0.00391 -0.040908,0.01173 -0.061362,0.016422c-0.055068,0.013294 -0.110136,0.027369 -0.162058,0.047701c-0.00472,0.001564 -0.008654,0.001564 -0.013374,0.00391c-0.022814,0.009384 -0.042481,0.02346 -0.064508,0.034407c-0.044054,0.021114 -0.087322,0.041445 -0.12823,0.068033c-0.029107,0.018768 -0.054281,0.041445 -0.081815,0.062559c-0.033041,0.025805 -0.066082,0.050047 -0.096762,0.079762c-0.027534,0.026587 -0.050348,0.055521 -0.074735,0.084454c-0.025174,0.029715 -0.051135,0.057085 -0.073949,0.089146c-0.025174,0.035971 -0.044841,0.07507 -0.066082,0.11417c-0.013374,0.024242 -0.029894,0.046137 -0.041694,0.071943l-4.942754,10.936833l-6.254948,-15.964992c-0.010227,-0.026587 -0.026747,-0.049265 -0.038548,-0.07507c-0.01888,-0.040663 -0.036974,-0.081326 -0.061362,-0.118862c-0.020454,-0.032061 -0.044054,-0.060213 -0.066868,-0.089928c-0.023601,-0.031279 -0.046415,-0.063341 -0.073949,-0.092274c-0.030681,-0.032061 -0.064508,-0.058649 -0.097549,-0.0868c-0.022027,-0.018768 -0.040908,-0.040663 -0.065295,-0.058649c-0.003933,-0.003128 -0.00944,-0.004692 -0.013374,-0.00782c-0.034614,-0.025023 -0.072375,-0.043791 -0.110136,-0.064123c-0.031467,-0.017204 -0.062148,-0.038317 -0.094402,-0.052393c-0.024387,-0.010948 -0.051135,-0.016422 -0.076309,-0.025805c-0.047201,-0.016422 -0.092829,-0.035189 -0.140817,-0.046137c-0.01652,-0.003128 -0.033041,-0.003128 -0.048775,-0.006256c-0.058215,-0.010948 -0.11643,-0.020332 -0.175431,-0.021896c-0.021241,-0.000782 -0.043268,0.003128 -0.065295,0.00391c-0.055068,0.000782 -0.109349,0.002346 -0.163631,0.01173c-0.021241,0.003128 -0.042481,0.01173 -0.063722,0.016422c-0.055068,0.012512 -0.109349,0.025023 -0.162844,0.044573c-0.003147,0.001564 -0.00708,0.001564 -0.011014,0.003128c-0.021241,0.00782 -0.039334,0.021114 -0.059788,0.030497c-0.047201,0.021114 -0.094402,0.043009 -0.138457,0.070379c-0.029894,0.017986 -0.055068,0.040663 -0.082602,0.060995c-0.033041,0.025023 -0.066868,0.049265 -0.098336,0.078198c-0.033041,0.031279 -0.062148,0.066469 -0.091256,0.100876c-0.017307,0.020332 -0.037761,0.037535 -0.054281,0.060213l-7.120303,9.684876l-8.051741,0c-0.652163,0 -1.18003,0.524711 -1.18003,1.172976c0,0.647483 0.527867,1.172976 1.18003,1.172976l8.653556,0c0.088109,0 0.173071,-0.01173 0.255673,-0.028933c0.022814,-0.005474 0.044054,-0.014858 0.066082,-0.020332c0.059788,-0.016422 0.118003,-0.036753 0.173858,-0.061777c0.027534,-0.013294 0.052708,-0.028151 0.079455,-0.043791c0.048775,-0.026587 0.095976,-0.056303 0.14003,-0.09071c0.024387,-0.017986 0.048775,-0.037535 0.072375,-0.058649c0.047201,-0.043009 0.090469,-0.089146 0.13059,-0.139193c0.011014,-0.014076 0.025174,-0.022678 0.035401,-0.037535l6.203026,-8.436829l6.494887,16.576503c0.001573,0.004692 0.005507,0.008602 0.00708,0.013294c0.038548,0.09462 0.092042,0.18142 0.154191,0.264311c0.01416,0.017986 0.026747,0.037535 0.041694,0.054739c0.065295,0.077416 0.140817,0.147013 0.226566,0.206444c0.015734,0.010166 0.032254,0.016422 0.047988,0.026587c0.044841,0.028151 0.088896,0.057085 0.138457,0.079762c0.030681,0.014076 0.062935,0.01955 0.093616,0.030497c0.027534,0.010166 0.054281,0.018768 0.081815,0.026587c0.101483,0.027369 0.204539,0.046137 0.306808,0.046137c0,0 0,0 0.000787,0c0,0 0,0 0,0c0.097549,0 0.195885,-0.016422 0.293434,-0.042227c0.022814,-0.006256 0.045628,-0.012512 0.068442,-0.018768c0.021241,-0.00782 0.044841,-0.010948 0.066082,-0.018768c0.066868,-0.025805 0.12823,-0.058649 0.187231,-0.095402c0.00708,-0.00391 0.01416,-0.006256 0.020454,-0.010166c0.084962,-0.053957 0.158911,-0.120426 0.225779,-0.19315c0.017307,-0.017986 0.033041,-0.037535 0.048775,-0.056303c0.062935,-0.076634 0.117216,-0.157961 0.158911,-0.246325c0.001573,-0.00391 0.005507,-0.007038 0.00708,-0.010948l0.003933,-0.008602c0,0 0,0 0,-0.000782l4.967928,-10.990789l3.480303,8.423535c0.005507,0.012512 0.014947,0.021114 0.020454,0.033625c0.040908,0.091492 0.091256,0.179074 0.156551,0.258837c0.003147,0.004692 0.006293,0.010166 0.010227,0.014858c0.051135,0.060995 0.110136,0.11808 0.175431,0.169691c0.012587,0.010166 0.026747,0.012512 0.040121,0.021114c0.069228,0.050047 0.145537,0.0868 0.223419,0.120426c0.036188,0.016422 0.070015,0.038317 0.107776,0.050047c0.110923,0.035189 0.225779,0.053957 0.344569,0.055521c0.00472,0 0.008654,0.002346 0.013374,0.002346l0.000787,0l0.000787,0c0.081029,0 0.161271,-0.010166 0.243086,-0.026587c0.027534,-0.006256 0.052708,-0.016422 0.081029,-0.02346c0.041694,-0.012512 0.083389,-0.020332 0.124297,-0.037535c0.011014,-0.004692 0.01888,-0.01173 0.029894,-0.016422c0.030681,-0.014076 0.059788,-0.031279 0.089682,-0.047701c0.045628,-0.025023 0.089682,-0.050829 0.13059,-0.081326c0.025961,-0.018768 0.049561,-0.039881 0.073949,-0.060995c0.043268,-0.036753 0.081815,-0.075852 0.118003,-0.117298c0.0118,-0.014076 0.025961,-0.02346 0.036974,-0.037535l3.972769,-5.025813l6.900031,0c0.651377,0 1.18003,-0.525493 1.18003,-1.172976c-0.001573,-0.649047 -0.530227,-1.173758 -1.181604,-1.173758z"/>
 </g>
</svg>