<svg width="582" height="402" xmlns="http://www.w3.org/2000/svg">
 <title/>

 <g>
  <title>background</title>
  <rect fill="none" id="canvas_background" height="404" width="584" y="-1" x="-1"/>
 </g>
 <g>
  <title>Layer 1</title>
  <path stroke="null" fill="#0a76da" id="svg_1" d="m354.740584,295.204842a6.992717,6.992717 0 0 1 -3.496359,-0.937362l-60.244228,-34.546461l-60.244228,34.546461a7.030212,7.030212 0 0 1 -10.52657,-6.09285l0,-174.349253a7.030212,7.030212 0 0 1 7.030212,-7.030212l127.481174,0a7.030212,7.030212 0 0 1 7.030212,7.030212l0,174.349253a7.030212,7.030212 0 0 1 -7.030212,7.030212zm-63.740587,-50.617525a6.992717,6.992717 0 0 1 3.496359,0.937362l53.214017,30.511119l0,-155.180208l-113.42075,0l0,155.180208l53.214017,-30.511119a6.992717,6.992717 0 0 1 3.496359,-0.937362z"/>
 </g>
</svg>