<svg viewBox="0 0 64 64" xml:space="preserve" xmlns="http://www.w3.org/2000/svg"><path d="M32 60.421C16.329 60.421 3.579 47.671 3.579 32S16.329 3.579 32 3.579 60.421 16.329 60.421 32 47.671 60.421 32 60.421zm0-54.842C17.432 5.579 5.579 17.432 5.579 32S17.432 58.421 32 58.421 58.421 46.568 58.421 32 46.568 5.579 32 5.579z" fill="#0a76d8" class="fill-000000"></path><path d="m48.998 9.561.694 1.876-30.638 11.324-.694-1.876z" fill="#0a76d8" class="fill-000000"></path><path d="m34.949 15.255 24.928 22.019-1.324 1.499-24.928-22.019z" fill="#0a76d8" class="fill-000000"></path><path d="m46.802 28.295 1.97.344-5.09 29.184-1.97-.343z" fill="#0a76d8" class="fill-000000"></path><path d="m44.419 42.331.92 1.776-25.862 13.401-.92-1.775z" fill="#0a76d8" class="fill-000000"></path><path d="m4.927 32.936 25.76 17.137-1.109 1.665L3.82 34.6z" fill="#0a76d8" class="fill-000000"></path><path d="m19.892 6.244 1.99.203-3.638 35.624-1.99-.203z" fill="#0a76d8" class="fill-000000"></path></svg>