<svg xmlns="http://www.w3.org/2000/svg" xmlns:xlink="http://www.w3.org/1999/xlink" width="40" zoomAndPan="magnify" viewBox="0 0 30 30.000001" height="40" preserveAspectRatio="xMidYMid meet" version="1.0"><defs><clipPath id="4415fa5e21"><path d="M 6.121094 6.847656 L 23.539062 6.847656 L 23.539062 22.089844 L 6.121094 22.089844 Z M 6.121094 6.847656 " clip-rule="nonzero"/></clipPath></defs><g clip-path="url(#4415fa5e21)"><path fill="#0a76d8" d="M 7.195312 22.125 L 22.777344 22.125 C 23.371094 22.125 23.859375 21.640625 23.859375 21.042969 L 23.859375 11.515625 C 23.859375 10.921875 23.371094 10.4375 22.777344 10.4375 L 20.914062 10.4375 C 21.003906 10.425781 21.09375 10.421875 21.1875 10.421875 C 21.339844 10.421875 21.464844 10.296875 21.464844 10.140625 C 21.464844 9.984375 21.339844 9.859375 21.1875 9.859375 C 20.46875 9.859375 19.789062 9.582031 19.277344 9.070312 C 18.769531 8.558594 18.488281 7.882812 18.488281 7.164062 C 18.488281 7.007812 18.363281 6.882812 18.207031 6.882812 C 18.054688 6.882812 17.929688 7.007812 17.929688 7.164062 C 17.929688 7.554688 17.84375 7.933594 17.6875 8.28125 L 17.664062 8.214844 C 17.625 8.101562 17.519531 8.023438 17.398438 8.023438 L 12.574219 8.023438 C 12.453125 8.023438 12.34375 8.101562 12.308594 8.214844 L 11.5625 10.4375 L 9.910156 10.4375 L 9.910156 9.511719 C 9.910156 9.359375 9.785156 9.234375 9.632812 9.234375 L 8.226562 9.234375 C 8.070312 9.234375 7.945312 9.359375 7.945312 9.511719 L 7.945312 10.4375 L 7.195312 10.4375 C 6.597656 10.4375 6.113281 10.921875 6.113281 11.519531 L 6.113281 21.046875 C 6.113281 21.640625 6.597656 22.125 7.195312 22.125 Z M 8.507812 9.792969 L 9.351562 9.792969 L 9.351562 10.351562 L 8.507812 10.351562 Z M 18.207031 8.488281 C 18.371094 8.847656 18.59375 9.179688 18.882812 9.46875 C 19.171875 9.757812 19.503906 9.980469 19.863281 10.140625 C 19.652344 10.234375 19.453125 10.351562 19.261719 10.492188 C 19.128906 10.589844 19 10.699219 18.882812 10.816406 C 18.808594 10.890625 18.742188 10.964844 18.679688 11.039062 C 18.488281 11.273438 18.328125 11.527344 18.207031 11.796875 C 17.980469 11.285156 17.621094 10.832031 17.15625 10.492188 C 16.96875 10.351562 16.769531 10.238281 16.558594 10.140625 C 16.917969 9.980469 17.25 9.757812 17.539062 9.46875 C 17.648438 9.359375 17.75 9.238281 17.84375 9.117188 C 17.84375 9.117188 17.84375 9.117188 17.84375 9.113281 C 17.988281 8.917969 18.113281 8.707031 18.207031 8.488281 Z M 12.773438 8.582031 L 17.199219 8.582031 L 17.300781 8.890625 C 17.296875 8.894531 17.292969 8.902344 17.289062 8.90625 C 17.242188 8.964844 17.191406 9.019531 17.140625 9.070312 C 17.082031 9.128906 17.023438 9.179688 16.964844 9.230469 C 16.957031 9.238281 16.949219 9.246094 16.941406 9.25 C 16.871094 9.304688 16.800781 9.359375 16.730469 9.40625 C 16.730469 9.40625 16.726562 9.410156 16.726562 9.410156 C 16.59375 9.5 16.449219 9.574219 16.300781 9.636719 C 16.289062 9.644531 16.277344 9.652344 16.265625 9.65625 C 16.230469 9.671875 16.191406 9.679688 16.15625 9.695312 C 15.863281 9.800781 15.554688 9.859375 15.230469 9.859375 C 15.078125 9.859375 14.953125 9.984375 14.953125 10.140625 C 14.953125 10.296875 15.078125 10.421875 15.230469 10.421875 C 15.316406 10.421875 15.402344 10.425781 15.488281 10.433594 C 15.492188 10.433594 15.496094 10.433594 15.503906 10.433594 L 12.152344 10.433594 Z M 6.671875 11.515625 C 6.671875 11.230469 6.90625 10.996094 7.195312 10.996094 L 16.890625 10.996094 C 16.921875 11.023438 16.953125 11.046875 16.988281 11.074219 C 17.023438 11.105469 17.0625 11.140625 17.097656 11.171875 C 17.136719 11.210938 17.171875 11.253906 17.210938 11.292969 C 17.242188 11.328125 17.277344 11.363281 17.308594 11.402344 C 17.34375 11.441406 17.375 11.488281 17.410156 11.535156 C 17.4375 11.574219 17.46875 11.609375 17.492188 11.652344 C 17.523438 11.699219 17.550781 11.746094 17.578125 11.796875 C 17.601562 11.839844 17.625 11.878906 17.644531 11.917969 C 17.671875 11.972656 17.695312 12.027344 17.714844 12.078125 C 17.734375 12.121094 17.753906 12.160156 17.769531 12.203125 C 17.789062 12.261719 17.804688 12.320312 17.824219 12.378906 C 17.832031 12.417969 17.847656 12.457031 17.859375 12.5 C 17.875 12.566406 17.882812 12.632812 17.894531 12.703125 C 17.902344 12.738281 17.910156 12.773438 17.914062 12.804688 C 17.925781 12.910156 17.933594 13.015625 17.933594 13.121094 C 17.933594 13.273438 18.058594 13.398438 18.210938 13.398438 C 18.367188 13.398438 18.492188 13.273438 18.492188 13.121094 C 18.492188 12.402344 18.773438 11.722656 19.28125 11.210938 C 19.347656 11.144531 19.425781 11.082031 19.5 11.019531 C 19.507812 11.011719 19.515625 11.003906 19.527344 10.996094 L 22.78125 10.996094 C 23.070312 10.996094 23.300781 11.230469 23.300781 11.519531 L 23.300781 21.046875 C 23.300781 21.332031 23.070312 21.566406 22.78125 21.566406 L 7.195312 21.566406 C 6.90625 21.566406 6.671875 21.332031 6.671875 21.046875 Z M 6.671875 11.515625 " fill-opacity="1" fill-rule="nonzero"/></g><path fill="#0a76d8" d="M 14.984375 20.257812 C 17.023438 20.257812 18.683594 18.597656 18.683594 16.5625 C 18.683594 14.523438 17.023438 12.867188 14.984375 12.867188 C 12.949219 12.867188 11.289062 14.523438 11.289062 16.5625 C 11.289062 18.597656 12.949219 20.257812 14.984375 20.257812 Z M 14.984375 13.425781 C 16.714844 13.425781 18.125 14.832031 18.125 16.5625 C 18.125 18.292969 16.714844 19.699219 14.984375 19.699219 C 13.257812 19.699219 11.847656 18.289062 11.847656 16.5625 C 11.847656 14.832031 13.257812 13.425781 14.984375 13.425781 Z M 14.984375 13.425781 " fill-opacity="1" fill-rule="nonzero"/><path fill="#0a76d8" d="M 15.417969 14.46875 C 16.402344 14.671875 17.121094 15.550781 17.121094 16.5625 C 17.121094 16.714844 17.246094 16.839844 17.402344 16.839844 C 17.558594 16.839844 17.683594 16.714844 17.683594 16.5625 C 17.683594 15.285156 16.777344 14.175781 15.527344 13.917969 C 15.378906 13.890625 15.230469 13.988281 15.199219 14.136719 C 15.167969 14.289062 15.265625 14.4375 15.417969 14.46875 Z M 15.417969 14.46875 " fill-opacity="1" fill-rule="nonzero"/><path fill="#0a76d8" d="M 13.9375 19.042969 C 13.972656 19.058594 14.011719 19.066406 14.046875 19.066406 C 14.152344 19.066406 14.257812 19.003906 14.304688 18.894531 C 14.363281 18.753906 14.296875 18.589844 14.152344 18.527344 C 13.359375 18.191406 12.847656 17.417969 12.847656 16.558594 C 12.847656 16.402344 12.722656 16.277344 12.570312 16.277344 C 12.414062 16.277344 12.289062 16.402344 12.289062 16.558594 C 12.292969 17.648438 12.9375 18.621094 13.9375 19.042969 Z M 13.9375 19.042969 " fill-opacity="1" fill-rule="nonzero"/><path fill="#0a76d8" d="M 19.804688 13.933594 L 22.566406 13.933594 C 22.71875 13.933594 22.84375 13.808594 22.84375 13.652344 L 22.84375 12.636719 C 22.84375 12.480469 22.71875 12.355469 22.566406 12.355469 L 19.804688 12.355469 C 19.648438 12.355469 19.523438 12.480469 19.523438 12.636719 L 19.523438 13.652344 C 19.523438 13.808594 19.652344 13.933594 19.804688 13.933594 Z M 20.085938 12.914062 L 22.285156 12.914062 L 22.285156 13.375 L 20.085938 13.375 Z M 20.085938 12.914062 " fill-opacity="1" fill-rule="nonzero"/></svg>